<svg xmlns="http://www.w3.org/2000/svg" viewBox="0 0 401 103" width="401" height="103">
	<style>
		tspan { white-space:pre }
	</style>
	<path fill="#000000" d="M23.28 70.88Q16.95 90.14 9.36 96.66Q5.94 99.66 3.59 99.66Q0.97 99.7 0.92 98.39Q0.92 98.02 1.53 97.83Q2.19 97.64 2.19 97.59Q5.56 96.47 8.8 92.11Q9.92 90.56 10.72 89.02Q15.73 78.75 19.53 65.72Q23.33 52.69 29.28 24.84Q29.56 23.58 30.31 19.55Q31.11 15.52 31.53 13.73Q32 11.91 32.23 10.31Q32.47 8.72 33.17 8.16Q33.92 7.59 36.31 7.59Q37.67 7.69 37.72 8.86Q37.72 9.38 36.55 14.06Q35.42 18.7 31.11 39.56Q26.8 60.38 23.28 70.88ZM45.22 23.39Q47.14 24.09 47.19 25.27Q47.19 25.69 46.53 27.56Q46.53 27.56 44.75 32.67Q38.47 50.67 37.67 56.48Q41.14 51.19 46.02 41.39Q50.94 31.55 51.97 29.63Q53 27.7 53.52 26.34Q54.08 24.98 54.55 24.84Q55.02 24.66 56.28 24.66Q58.16 24.66 58.16 26.39Q58.02 27.28 56.14 32.25Q54.31 37.17 52.16 45.47Q50.05 53.72 50.05 57.09Q50.09 60.42 50.7 60.52Q52.77 60.52 58.11 54.66Q63.5 48.75 65.98 44.02Q67.02 42.14 67.95 42.09Q68.42 42.19 68.47 42.84Q68.47 46.78 63.22 53.11Q58.02 59.44 54.27 62.02L53.33 62.63Q51.73 63.47 50.98 63.47L50.19 63.47Q46.06 62.77 45.97 56.53Q45.97 53.44 46.91 50.16L47.94 46.36Q43.34 56.44 40.25 60.23Q37.2 63.98 34.72 63.98Q32.84 63.89 32.84 60.61Q32.84 55.17 36.69 42.38Q42.13 24.33 43.53 23.3Q43.81 23.16 44.19 23.16Q44.56 23.16 45.22 23.39ZM86 32.39Q78.5 33.66 72.92 42.23Q67.48 50.58 67.2 58.73Q77.94 44.58 86 32.39ZM83.84 28.41L86.61 28.78Q87.27 28.78 87.97 28.03Q88.72 27.28 89.84 27.28Q91.02 27.28 91.67 27.89Q92.38 28.5 92.38 28.97Q92.38 29.39 91.91 30.42Q91.44 31.45 91.34 31.78Q85.11 51.33 85.11 56.72Q85.16 58.59 85.95 58.64Q88.81 58.64 94.91 51.14Q98.98 46.13 100.16 43.78Q101.38 41.44 102.08 41.3Q102.22 41.3 102.31 41.25Q103.16 41.34 103.2 42.23Q103.2 43.92 99.31 49.83Q91.02 62.48 84.97 62.48Q80.61 62.48 80.61 56.39Q80.61 53.48 81.78 49.17Q82.95 44.81 83.19 43.73Q82.11 45.14 75.97 53.95Q69.83 62.77 67.16 64.36Q66.31 64.83 65.7 64.88Q63.03 64.88 61.81 62.77Q61.25 61.73 61.2 59.81Q61.2 57.84 64.11 50.81Q68.8 39.47 74.75 33.33Q79.44 28.55 83.84 28.41ZM132.13 45.47Q132.13 47.81 126.78 54.09Q121.44 60.38 118.77 62.39Q116.14 64.36 113.47 64.36Q108.5 64.31 108.5 56.48Q108.5 52.78 110 44.91Q111.5 36.98 111.59 36.28Q106.63 37.92 102.08 48.75Q101.14 51.05 99.08 56.58Q97.06 62.06 96.22 63.09Q95.19 64.31 93.5 64.31Q91.81 64.31 91.77 63.09Q91.77 60.84 106.81 25.78Q109.16 20.25 109.53 19.59Q110.33 18.05 112.86 19.73Q113.61 20.25 113.61 20.77Q113.66 21.28 112.91 22.41Q111.17 25.13 109.81 28.73L108.03 33.38L109.53 31.55Q111.55 29.06 112.77 27.8Q113.98 26.48 114.78 26.34Q115.63 26.16 116.52 26.16Q118.44 26.3 118.53 28.22Q118.53 29.16 117.88 30.75Q114.92 37.55 113.33 51.33Q112.91 55.27 112.91 58.27Q112.95 61.22 114.36 61.27Q116.33 61.27 121.53 55.17Q126.73 49.03 129.03 45Q129.64 44.02 130.77 43.97Q131.94 44.25 132.13 45.47ZM133.44 70.88Q127.11 90.14 119.52 96.66Q116.09 99.66 113.75 99.66Q111.13 99.7 111.08 98.39Q111.08 98.02 111.69 97.83Q112.34 97.64 112.34 97.59Q115.72 96.47 118.95 92.11Q120.08 90.56 120.88 89.02Q125.89 78.75 129.69 65.72Q133.48 52.69 139.44 24.84Q139.72 23.58 140.47 19.55Q141.27 15.52 141.69 13.73Q142.16 11.91 142.39 10.31Q142.63 8.72 143.33 8.16Q144.08 7.59 146.47 7.59Q147.83 7.69 147.88 8.86Q147.88 9.38 146.7 14.06Q145.58 18.7 141.27 39.56Q136.95 60.38 133.44 70.88ZM166.2 32.39Q158.7 33.66 153.13 42.23Q147.69 50.58 147.41 58.73Q158.14 44.58 166.2 32.39ZM164.05 28.41L166.81 28.78Q167.47 28.78 168.17 28.03Q168.92 27.28 170.05 27.28Q171.22 27.28 171.88 27.89Q172.58 28.5 172.58 28.97Q172.58 29.39 172.11 30.42Q171.64 31.45 171.55 31.78Q165.31 51.33 165.31 56.72Q165.36 58.59 166.16 58.64Q169.02 58.64 175.11 51.14Q179.19 46.13 180.36 43.78Q181.58 41.44 182.28 41.3Q182.42 41.3 182.52 41.25Q183.36 41.34 183.41 42.23Q183.41 43.92 179.52 49.83Q171.22 62.48 165.17 62.48Q160.81 62.48 160.81 56.39Q160.81 53.48 161.98 49.17Q163.16 44.81 163.39 43.73Q162.31 45.14 156.17 53.95Q150.03 62.77 147.36 64.36Q146.52 64.83 145.91 64.88Q143.23 64.88 142.02 62.77Q141.45 61.73 141.41 59.81Q141.41 57.84 144.31 50.81Q149 39.47 154.95 33.33Q159.64 28.55 164.05 28.41ZM208.16 28.88Q208.16 28.88 195.27 28.88Q196.11 31.13 196.16 31.73Q194.7 39.61 192.45 46.83Q187.06 63.84 180.73 63.84Q177.59 63.8 177.55 55.13Q177.55 46.41 179.98 35.72Q180.27 34.5 182.94 31.31Q185.94 27.7 186.13 26.3Q186.36 24.89 186.64 24.89L187.11 25.13L188.28 31.97Q186.17 36.42 183.92 44.06Q181.67 51.7 181.63 55.27Q181.63 56.3 182.23 56.34Q182.66 56.34 183.22 55.88Q185.75 53.72 189.22 44.39Q192.73 35.06 192.73 31.36Q192.73 30.33 191.61 26.39Q193.02 26.72 194.8 26.72Q196.58 26.72 200.94 25.69Q205.3 24.66 207.41 24.56Q209.52 24.47 210.78 25.45Q212.05 26.44 210.92 28.13Q210.5 28.78 208.16 28.88ZM214.44 19.78Q214.2 19.69 213.27 19.03Q212.14 18.23 212.14 17.86Q212.14 16.59 215.66 11.91Q219.17 7.22 219.64 6.28Q220.81 5.11 222.88 7.45Q224.52 9.42 223.91 10.64Q223.58 11.86 219.92 15.8Q216.27 19.73 214.44 19.78ZM225.64 49.22Q223.91 54.09 218.75 59.16Q212.66 65.16 208.53 65.16Q202.95 65.16 201.55 58.83Q201.13 56.91 201.13 54.66Q201.08 47.39 203.89 37.83Q207.41 25.73 210.55 25.73Q212.09 25.73 212.8 26.48Q213.55 27.19 213.55 27.52Q213.55 29.02 210.5 34.92Q207.45 40.78 206.7 43.45Q206 46.08 205.63 50.34Q205.3 54.56 205.3 55.78Q205.3 59.91 206.28 60.94Q207.31 61.97 208.77 62.02Q212.89 62.02 218.61 54.84Q221.38 51.33 222.92 48.38Q223.63 47.25 224.38 47.25Q225.64 47.44 225.78 48.52Q225.78 48.66 225.64 49.22ZM231.78 40.03Q232.72 39.89 235.81 36Q238.91 32.11 238.91 29.91Q238.91 29.58 238.67 29.16Q237.73 30.09 234.73 34.5Q231.78 38.91 231.78 40.03ZM250.44 47.02Q252.78 44.48 253.06 46.13Q253.06 46.73 252.31 48.14Q250.02 52.41 245.28 57.19Q237.78 64.78 232.02 64.78Q229.3 64.78 227.38 63.23Q223.77 60.28 223.77 52.97Q223.77 48.8 226.3 41.25Q228.88 33.66 234.17 27.52Q236.52 24.52 239.05 24.52Q240.27 24.52 241.58 25.03Q244.67 26.3 244.67 29.11Q244.67 29.53 244.39 30.47Q242.47 34.27 238.2 39.23Q233.94 44.2 229.53 47.16Q228.03 52.59 228.03 55.64Q228.03 58.69 228.17 59.53Q228.59 61.5 231.31 61.5Q234.03 61.5 237.59 59.02Q241.16 56.48 245.19 52.36Q249.22 48.23 249.73 47.72Q250.3 47.2 250.44 47.02ZM267.36 33.38L267.36 33.52L267.27 34.13L267.17 34.69Q267.17 35.81 263.89 43.69Q260.56 51.56 260.61 54.84Q260.7 60.42 263.33 60.47Q265.95 60.47 271.02 54.61Q277.11 47.58 278.47 44.02Q279.83 40.5 280.58 40.5Q281.19 40.55 281.23 41.81Q281.23 43.03 280.95 43.69L280.48 44.95Q278.47 50.11 274.16 55.69Q267.92 63.89 263.05 63.89Q261.5 63.89 260.23 63.09Q257.05 61.08 257.05 55.5Q257.05 53.67 257.84 49.88Q258.69 46.08 258.64 45.8Q258.64 45.47 257.8 45.09Q256.11 44.34 255.55 44.91Q255.08 45.56 251.38 55.03Q247.72 64.5 246.36 64.5Q245.94 64.5 244.72 63.94Q243.55 63.38 243.55 62.39Q243.55 62.2 244.77 59.53L247.34 53.58Q250.06 47.3 253.72 36.84L259.95 19.22Q260.19 18.56 261.45 18.52L262.67 18.47Q264.92 18.47 264.92 20.11Q264.92 20.91 262.48 27.14Q260.05 33.38 259.34 36.75L259.2 38.16Q259.2 38.77 259.44 38.86Q259.58 38.81 260.61 36.8L261.83 34.41Q262.11 33.98 262.39 33.28Q263.42 31.36 264.83 31.36Q267.27 31.41 267.36 33.38ZM283.39 54.61Q283.67 55.45 284.05 56.02Q284.47 56.53 285.83 56.53Q287.19 56.53 287.66 56.67Q289.77 57.23 289.77 59.77Q289.77 60.61 289.39 61.31Q288.45 63.14 286.53 63.14Q284.66 63.14 283.25 62.11Q281.84 61.08 281.89 58.97Q281.89 58.27 281.94 57.98Q281.98 57.7 283.39 54.61ZM310.58 55.5Q310.63 57.05 311.61 57.14Q312.31 57.14 313.34 56.16Q316.48 53.11 320.28 44.2Q324.13 35.3 324.13 32.48Q324.08 31.73 323.33 31.59Q321.88 31.59 320.47 32.34Q315.88 34.88 312.73 44.53Q310.58 51.14 310.58 55.5ZM309.08 65.86Q306.03 65.86 305.98 58.41Q305.98 55.27 307.11 49.41Q308.23 43.5 310.63 38.91Q309.17 40.88 306.27 45.61Q303.36 50.3 302.23 51.98L302.23 52.03Q300.92 54 299.8 54Q298.67 53.95 298.58 52.88Q298.58 51.98 299.89 49.88Q306.27 39.94 312.92 24.98Q319.63 9.98 320.84 4.22Q321.17 2.91 323.33 2.86Q324.03 2.86 324.78 3.05Q326.7 3.61 326.7 4.88Q326.7 5.3 326.38 5.86Q318.36 19.69 316.72 29.91Q320.05 27.94 323.23 27.89Q324.36 27.89 325.3 28.27Q327.97 29.3 327.97 32.39Q327.97 34.27 325.63 41.11Q323.33 47.91 317.98 56.91Q312.69 65.86 309.08 65.86ZM329.33 65.91Q329.33 69.7 330.83 73.22Q333.36 79.13 338.33 79.13Q342.22 79.13 344.84 77.16Q347.52 75.14 351.13 70.59Q352.25 69.14 353.47 69.61Q354.69 70.03 354.69 71.53Q354.69 75.94 349.44 79.08Q344.23 82.22 339.5 82.22Q325.48 82.22 325.48 65.63Q325.48 58.36 328.2 50.48L328.67 49.13Q337.44 24 342.27 15.42Q345.64 9.23 349.58 9.23Q355.16 9.28 355.25 13.27Q355.25 15.75 351.92 21.14Q348.59 26.48 338.56 39.84Q336.03 42.7 334.06 46.31Q329.33 55.22 329.33 65.91ZM337.95 34.59Q338.66 34.55 344.42 24.47Q350.23 14.34 350.19 14.02Q350.14 13.64 349.81 13.64Q349.48 13.59 349.39 13.69Q347.84 14.63 342.83 23.67Q337.86 32.67 337.86 34.36Q337.86 34.5 337.95 34.59ZM359.84 30.09Q357.5 30.47 353.8 41.81Q350.09 53.16 350.09 55.22Q350.09 57.28 350.47 57.28Q352.44 57.28 356.61 48.84Q360.78 40.36 360.78 33.33Q360.78 30.14 359.84 30.09ZM359.09 24.28Q360.41 24.28 361.34 25.03Q362.98 26.44 362.98 30.47Q362.98 48.89 356.42 58.08L355.77 59.06Q351.69 64.97 349.2 64.97Q346.16 64.64 345.69 60.52Q345.69 57.09 348.45 46.64Q351.27 36.19 354.88 28.55Q356.94 24.33 359.09 24.28ZM395.38 34.36Q394.67 32.77 393.55 32.77Q393.22 32.77 393.03 32.86Q388.95 34.45 381.69 39.28Q374.47 44.11 374.23 46.27Q374.28 46.69 374.8 46.78Q376.2 46.78 380.14 44.53Q384.13 42.23 384.5 42.05Q384.88 41.91 385.81 41.34L387.17 40.55Q395 36.19 395.38 34.36ZM386.8 50.39L386.8 50.25Q387.17 47.91 387.17 47.72Q387.13 46.97 385.81 46.97Q384.5 46.92 382.91 47.63Q381.36 48.33 376.02 51.38Q370.67 54.38 367.11 54.38Q365.98 54.38 364.34 53.34Q361.16 51.28 364.2 47.58Q366.55 44.91 372.13 40.78L380.66 34.41Q389.8 27.66 392.66 27.7Q395.52 27.75 398.28 31.03Q397.11 31.69 396.73 34.41Q396.78 34.36 397.3 34.36Q397.81 34.36 398.28 34.64Q398.8 34.88 398.8 36.8Q398.8 38.67 398.42 38.72Q397.77 38.72 395.75 40.55Q393.73 42.33 392.75 43.88Q391.86 51.14 389.66 60.94Q384.97 81.7 379.72 89.91Q378.13 92.34 375.83 94.64Q370.67 99.61 366.36 99.61Q364.3 99.61 364.3 98.63Q364.34 98.25 365.61 97.97Q366.92 97.64 368.52 96.7Q371.84 94.69 373.95 91.31Q377.84 85.13 380.61 76.17Q383.42 67.22 386.8 50.39Z" />
</svg>